<?xml version="1.0" standalone="no"?>
<!DOCTYPE svg PUBLIC "-//W3C//DTD SVG 20010904//EN"
 "http://www.w3.org/TR/2001/REC-SVG-20010904/DTD/svg10.dtd">
<svg version="1.0" xmlns="http://www.w3.org/2000/svg"
 width="256.000000pt" height="256.000000pt" viewBox="0 0 256.000000 256.000000"
 preserveAspectRatio="xMidYMid meet">
<metadata>
Created by potrace 1.14, written by Peter Selinger 2001-2017
</metadata>
<g transform="translate(0.000000,256.000000) scale(0.100000,-0.100000)"
fill="#000000" stroke="none">
<path d="M1975 2553 c-5 -5 -50 -28 -100 -50 -127 -58 -215 -99 -324 -149
-106 -49 -117 -52 -126 -25 -9 30 -84 99 -133 121 -193 91 -422 -54 -424 -269
0 -27 6 -66 12 -86 7 -20 8 -40 4 -44 -5 -4 -106 -52 -224 -106 -346 -157
-337 -153 -348 -183 -16 -47 17 -101 63 -102 16 0 901 401 1582 716 28 13 56
24 61 24 6 0 24 13 41 29 35 33 40 68 14 100 -19 23 -82 38 -98 24z m-758
-234 c29 -11 83 -57 83 -71 0 -8 -38 -27 -199 -100 -38 -17 -68 -25 -73 -20
-5 5 -9 27 -10 49 -1 105 102 179 199 142z"/>
<path d="M1919 2221 c-79 -20 -110 -39 -149 -92 -28 -39 -37 -71 -59 -209 -12
-76 -32 -96 -101 -105 -25 -4 -55 -11 -67 -17 -44 -21 -47 -93 -5 -124 23 -18
74 -17 143 2 110 31 170 111 184 244 12 127 31 152 125 163 25 3 46 6 47 6 1
1 12 11 23 23 33 36 11 114 -35 118 -5 1 -17 3 -25 5 -8 1 -45 -5 -81 -14z"/>
<path d="M2391 2229 c-58 -11 -121 -42 -154 -77 -34 -35 -63 -117 -71 -200
-11 -109 -25 -126 -107 -137 -24 -4 -54 -11 -66 -17 -44 -21 -47 -92 -5 -125
20 -15 106 -11 162 8 104 35 153 113 167 262 8 87 24 114 76 127 117 30 121
33 131 73 9 34 7 41 -15 62 -29 28 -58 35 -118 24z"/>
<path d="M152 1499 c-51 -15 -128 -95 -142 -149 -25 -95 16 -241 89 -317 43
-45 108 -87 159 -103 l42 -13 1 -296 c0 -163 3 -307 5 -321 9 -51 62 -147 105
-189 24 -24 73 -58 109 -75 l65 -31 695 0 695 0 65 31 c98 47 163 119 197 214
10 30 19 61 19 68 1 6 2 144 2 306 l2 294 26 6 c98 25 190 105 238 206 25 54
30 78 31 140 0 52 -5 86 -18 112 -22 46 -90 105 -136 118 -48 13 -2203 12
-2249 -1z m148 -285 l0 -145 -31 18 c-98 57 -150 193 -94 248 19 20 34 25 75
25 l50 0 0 -146z m1810 -363 c0 -432 -2 -515 -15 -552 -18 -49 -52 -89 -105
-122 -35 -22 -37 -22 -685 -25 -496 -2 -661 0 -695 10 -57 15 -134 90 -149
144 -7 26 -11 215 -11 547 l0 507 830 0 830 0 0 -509z m276 484 c22 -22 25
-33 22 -68 -6 -60 -34 -112 -81 -152 -65 -56 -67 -54 -67 105 l0 140 50 0 c41
0 56 -5 76 -25z"/>
</g>
</svg>
